<svg xmlns="http://www.w3.org/2000/svg" width="357.117" height="110" viewBox="0 0 357.117 110"><g fill="none" fill-rule="evenodd" transform="matrix(1.7374987,0,0,1.7374987,5,4.9999998)"><path fill="#003263" d="m 14.655,7.829 v 6.897 H 6.898 V 7.829 H 0 V 26.71 h 6.897 v -7.192 h 7.757 v 7.192 h 6.898 V 7.829 h -6.898 z m 23.555,0 v 12.18 c 0,1.863 -0.635,2.053 -3.354,2.053 -2.793,0 -3.925,-0.07 -3.925,-1.833 v -12.4 h -6.899 v 12.497 c 0,4.54 1.025,6.53 10.824,6.53 6.492,0 10.252,-1.07 10.252,-6.53 V 7.83 H 38.21 Z m 26.862,0 0.37,13.668 L 58.81,7.829 H 47.627 V 26.71 h 6.905 l -0.37,-13.66 6.535,13.66 h 11.28 V 7.829 Z m 8.91,0 v 4.795 h 6.104 v 14.087 h 6.897 V 12.624 h 6.422 V 7.83 H 73.982 Z m 20.552,5.723 c 0,2.659 0.839,4.032 2.372,4.778 0.767,0.373 1.708,0.589 2.804,0.73 0.548,0.07 1.135,0.122 1.76,0.166 l 1.98,0.113 2.277,0.117 c 1.428,0.071 2.141,0.112 2.498,0.294 0.18,0.091 0.27,0.218 0.313,0.401 0.022,0.091 0.034,0.197 0.04,0.32 l 0.006,0.417 c 0,1.206 -0.554,1.418 -3.703,1.418 -3.247,0 -3.736,-0.24 -3.736,-1.833 v -0.27 H 94.5 v 0.27 c 0,3.191 1.146,4.788 3.016,5.585 0.935,0.4 2.051,0.6 3.295,0.7 0.623,0.05 1.278,0.074 1.958,0.086 l 2.112,0.012 c 5.014,0 8.018,-0.668 9.452,-2.103 0.574,-0.575 0.86,-1.23 1.004,-1.92 0.072,-0.345 0.107,-0.7 0.125,-1.055 l 0.02,-0.536 v -0.671 c 0,-4.42 -1.932,-5.156 -9.062,-5.552 l -2.638,-0.146 c -1.828,-0.106 -2.35,-0.188 -2.35,-1.344 l 0.005,-0.27 c 0.008,-0.087 0.02,-0.171 0.047,-0.249 0.054,-0.157 0.162,-0.295 0.378,-0.41 0.431,-0.23 1.293,-0.367 3.02,-0.367 2.66,0 3.289,0.059 3.289,1.613 v 0.27 h 6.641 v -1.028 c 0,-2.702 -1.205,-4.054 -3.05,-4.73 -0.922,-0.337 -2.004,-0.506 -3.175,-0.59 a 32.318,32.318 0 0 0 -1.815,-0.073 l -1.89,-0.012 c -6.438,0 -10.348,0.395 -10.348,5.87 z m 98.34,-5.723 0.37,13.67 -6.63,-13.67 H 175.43 V 26.71 h 6.905 l -0.37,-13.66 6.534,13.66 H 199.78 V 7.829 Z"/><path fill="#900027" d="M 0,44.597 V 54.655 H 7.015 V 53.837 H 0.96 V 49.865 H 6.564 V 49.049 H 0.96 v -3.634 h 5.985 v -0.818 z m 8.167,2.79 v 7.268 h 0.889 v -4.24 c 0.027,-1.423 0.873,-2.493 2.282,-2.493 1.436,0 1.844,0.944 1.844,2.197 v 4.536 h 0.889 v -4.677 c 0,-1.731 -0.621,-2.802 -2.662,-2.802 -1.029,0 -2.001,0.592 -2.326,1.464 H 9.056 v -1.253 h -0.89 z m 7.577,0 h 0.818 v 1.704 h 0.028 c 0.45,-1.169 1.436,-1.86 2.747,-1.802 v 0.886 c -1.608,-0.084 -2.705,1.1 -2.705,2.607 v 3.873 h -0.888 z m 4.448,-1.364 h 1 v -1.426 h -1 z m 0,8.632 h 1 v -7.27 h -1 z m 7.718,-4.987 h 0.888 c -0.197,-1.66 -1.394,-2.492 -2.943,-2.492 -2.225,0 -3.436,1.76 -3.436,3.845 0,2.084 1.21,3.843 3.436,3.843 1.618,0 2.759,-1.069 2.999,-2.815 h -0.888 c -0.111,1.21 -1.013,2.07 -2.111,2.07 -1.704,0 -2.548,-1.55 -2.548,-3.098 0,-1.55 0.844,-3.099 2.548,-3.099 1.154,0 1.817,0.662 2.056,1.746 z m 2.167,-5.071 v 10.058 h 0.89 v -4.241 c 0.028,-1.422 0.873,-2.492 2.281,-2.492 1.437,0 1.845,0.944 1.845,2.197 v 4.536 h 0.889 v -4.677 c 0,-1.731 -0.622,-2.802 -2.663,-2.802 -1.028,0 -2,0.592 -2.324,1.464 h -0.028 v -4.043 z m 7.591,1.426 h 1 v -1.426 h -1 z m 0,8.632 h 1 v -7.27 h -1 z m 2.577,-7.268 v 7.268 h 0.889 v -4.24 c 0.028,-1.422 0.872,-2.493 2.28,-2.493 1.438,0 1.845,0.944 1.845,2.196 v 4.537 h 0.89 v -4.677 c 0,-1.732 -0.622,-2.802 -2.664,-2.802 -1.028,0 -2,0.592 -2.323,1.464 h -0.028 v -1.253 z m 13.719,6.675 v -6.675 h -0.889 v 1.253 h -0.029 c -0.352,-0.803 -1.254,-1.464 -2.308,-1.464 -2.099,0 -3.283,1.661 -3.283,3.661 0,2.07 0.958,3.732 3.283,3.732 1.042,0 1.9,-0.606 2.308,-1.494 h 0.029 v 0.987 c 0,1.775 -0.705,2.746 -2.337,2.746 -0.987,0 -1.931,-0.38 -2.128,-1.45 h -0.887 c 0.127,1.55 1.564,2.196 3.015,2.196 2.38,0 3.209,-1.324 3.226,-3.492 z m -0.889,-3.126 c 0,1.479 -0.804,2.887 -2.337,2.887 -1.635,0 -2.396,-1.423 -2.396,-2.887 0,-1.507 0.706,-3.014 2.396,-3.014 1.674,0 2.337,1.59 2.337,3.014 z m 6.504,3.719 h 0.89 V 44.597 h -0.89 z m 2.604,-8.632 h 1 v -1.426 h -1 z m 0,8.632 h 1 v -7.27 h -1 z m 1.777,-7.269 2.802,7.269 h 0.943 l 2.718,-7.27 h -0.915 l -2.253,6.38 h -0.029 l -2.28,-6.38 H 63.96 Z m 7.857,3.874 h 5.592 c 0.07,-2.043 -0.861,-4.084 -3.197,-4.084 -2.31,0 -3.282,1.93 -3.282,3.845 0,2.07 0.972,3.844 3.282,3.844 1.829,0 2.787,-0.958 3.167,-2.606 h -0.887 c -0.282,1.099 -0.985,1.86 -2.28,1.86 -1.705,0 -2.38,-1.565 -2.395,-2.859 z m 4.704,-0.744 h -4.704 c 0.141,-1.327 0.943,-2.594 2.395,-2.594 1.436,0 2.267,1.255 2.31,2.594 z m 6.435,-1.003 h 0.887 c -0.057,-1.577 -1.211,-2.337 -2.661,-2.337 -1.282,0 -2.732,0.564 -2.732,2.041 0,1.24 0.872,1.635 2.027,1.943 l 1.141,0.255 c 0.802,0.196 1.59,0.479 1.59,1.323 0,1.015 -1.153,1.38 -1.984,1.38 -1.183,0 -2.07,-0.62 -2.141,-1.816 h -0.887 c 0.14,1.774 1.295,2.563 2.986,2.563 1.351,0 2.913,-0.606 2.913,-2.183 0,-1.267 -1.054,-1.86 -2.068,-2.013 l -1.183,-0.268 c -0.607,-0.156 -1.507,-0.436 -1.507,-1.224 0,-0.945 0.93,-1.255 1.719,-1.255 1.013,0 1.858,0.493 1.9,1.591 z M 90.7,47.387 v -2.184 h -0.887 v 2.184 h -1.268 v 0.746 h 1.268 v 4.972 c -0.014,1.24 0.395,1.633 1.577,1.633 l 0.393,-0.013 0.397,-0.015 v -0.76 a 6.959,6.959 0 0 1 -0.761,0.042 C 90.784,53.95 90.7,53.612 90.7,53.034 v -4.9 h 1.48 v -0.747 z m 2.746,-2.79 v 10.058 h 0.889 v -4.24 c 0.027,-1.422 0.872,-2.493 2.28,-2.493 1.436,0 1.845,0.944 1.845,2.196 v 4.537 h 0.888 v -4.677 c 0,-1.732 -0.621,-2.802 -2.664,-2.802 -1.028,0 -2,0.592 -2.322,1.464 h -0.027 v -4.043 h -0.89 z m 7.575,2.79 v 7.268 h 0.89 v -3.873 c 0,-1.508 1.096,-2.691 2.704,-2.607 v -0.886 c -1.312,-0.058 -2.299,0.633 -2.747,1.802 h -0.029 v -1.704 z m 10.692,3.634 c 0,-2.084 -1.21,-3.845 -3.437,-3.845 -2.224,0 -3.435,1.76 -3.435,3.845 0,2.084 1.21,3.844 3.435,3.844 2.226,0 3.437,-1.76 3.437,-3.844 z m -5.985,0 c 0,-1.55 0.845,-3.099 2.548,-3.099 1.704,0 2.549,1.549 2.549,3.099 0,1.55 -0.845,3.097 -2.549,3.097 -1.703,0 -2.548,-1.548 -2.548,-3.097 z m 13.196,3.632 v -7.267 h -0.889 v 3.817 c 0,1.48 -0.66,2.915 -2.183,2.915 -1.408,0 -1.901,-0.69 -1.944,-2 v -4.732 h -0.889 v 4.719 c 0,1.69 0.722,2.76 2.551,2.76 1.085,0 2.042,-0.55 2.508,-1.522 h 0.028 v 1.31 z m 61.774,-7.266 h 1.48 v 0.746 h -1.48 v 4.901 c 0,0.578 0.084,0.916 0.719,0.958 0.252,0 0.506,-0.015 0.76,-0.042 v 0.76 l -0.396,0.015 -0.394,0.013 c -1.182,0 -1.59,-0.393 -1.576,-1.633 v -4.972 h -1.269 v -0.746 h 1.27 v -2.184 h 0.886 z m 2.771,-1.364 h 1 v -1.426 h -1 z m 0,8.632 h 1 v -7.27 h -1 z m 9.099,-3.635 c 0,-2.083 -1.21,-3.844 -3.436,-3.844 -2.224,0 -3.436,1.76 -3.436,3.845 0,2.084 1.212,3.843 3.436,3.843 2.227,0 3.436,-1.76 3.436,-3.843 z m -5.985,0 c 0,-1.549 0.847,-3.098 2.549,-3.098 1.705,0 2.55,1.55 2.55,3.099 0,1.55 -0.845,3.098 -2.55,3.098 -1.702,0 -2.549,-1.549 -2.549,-3.098 z m 7.294,-3.633 v 7.268 h 0.889 v -4.24 c 0.028,-1.423 0.872,-2.493 2.28,-2.493 1.437,0 1.846,0.944 1.846,2.197 v 4.536 h 0.887 v -4.677 c 0,-1.731 -0.62,-2.802 -2.662,-2.802 -1.028,0 -2,0.592 -2.323,1.464 h -0.028 v -1.253 h -0.89 z"/><path fill="#003263" d="m 136.715,7.829 -4.251,11.328 -4.47,-11.328 H 117.462 V 26.71 h 6.912 l -0.605,-13.372 5.803,13.372 h 5.855 L 141.2,13.265 140.591,26.71 h 6.912 V 7.829 Z m 29.727,0 h -10.03 L 149.05,26.71 h 7.192 l 1.177,-3.157 h 8.18 l 1.239,3.157 h 7.064 l -7.46,-18.882 z m -8.228,12.158 3.087,-8.49 h 0.44 l 3.157,8.49 z"/><path fill="#900027" d="M 0,3.915 H 199.779 V 0 H 0 Z M 0,34.543 H 199.779 V 30.628 H 0 Z m 126.739,19.519 v -6.675 h -0.889 v 1.253 h -0.03 c -0.35,-0.804 -1.252,-1.464 -2.308,-1.464 -2.097,0 -3.282,1.661 -3.282,3.661 0,2.07 0.96,3.733 3.282,3.733 1.043,0 1.9,-0.607 2.309,-1.495 h 0.03 v 0.987 c 0,1.775 -0.706,2.745 -2.34,2.745 -0.985,0 -1.927,-0.378 -2.124,-1.449 H 120.5 c 0.126,1.55 1.56,2.196 3.012,2.196 2.38,0 3.212,-1.323 3.227,-3.492 m -0.889,-3.127 c 0,1.48 -0.804,2.888 -2.338,2.888 -1.632,0 -2.393,-1.423 -2.393,-2.888 0,-1.506 0.704,-3.013 2.393,-3.013 1.677,0 2.338,1.59 2.338,3.013 m 2.561,-6.338 h 0.889 v 4.043 h 0.03 c 0.323,-0.872 1.294,-1.464 2.322,-1.464 2.041,0 2.663,1.07 2.663,2.802 v 4.677 h -0.89 v -4.536 c 0,-1.253 -0.407,-2.197 -1.844,-2.197 -1.409,0 -2.252,1.07 -2.281,2.492 v 4.24 h -0.889 V 44.598 Z m 11.505,1.426 h 1 v -1.426 h -1 z m 0,8.632 h 1 v -7.27 h -1 z m 2.578,-7.268 v 7.268 h 0.889 v -4.24 c 0.028,-1.422 0.872,-2.493 2.28,-2.493 1.437,0 1.846,0.944 1.846,2.196 v 4.537 h 0.888 v -4.677 c 0,-1.732 -0.622,-2.802 -2.663,-2.802 -1.028,0 -2,0.592 -2.323,1.464 h -0.028 v -1.253 h -0.89 z m 7.561,0 v 7.268 h 0.889 v -4.24 c 0.027,-1.422 0.872,-2.493 2.28,-2.493 1.436,0 1.845,0.944 1.845,2.196 v 4.537 h 0.888 v -4.677 c 0,-1.732 -0.62,-2.802 -2.662,-2.802 -1.028,0 -2,0.592 -2.324,1.464 h -0.027 v -1.253 z m 14.082,3.634 c 0,-2.084 -1.211,-3.845 -3.435,-3.845 -2.224,0 -3.435,1.76 -3.435,3.845 0,2.084 1.211,3.844 3.435,3.844 2.224,0 3.435,-1.76 3.435,-3.844 z m -5.983,0 c 0,-1.55 0.844,-3.099 2.548,-3.099 1.703,0 2.548,1.549 2.548,3.099 0,1.55 -0.845,3.097 -2.548,3.097 -1.704,0 -2.548,-1.548 -2.548,-3.097 z m 6.49,-3.635 2.802,7.269 h 0.944 l 2.718,-7.27 h -0.915 l -2.254,6.381 h -0.027 l -2.282,-6.38 h -0.987 z m 7.252,2.226 h 0.887 c 0.029,-1.182 0.847,-1.69 1.943,-1.69 1.044,0 1.903,0.296 1.903,1.494 0,0.801 -0.408,0.9 -1.14,0.985 l -0.72,0.084 -0.7,0.09 c -0.455,0.07 -0.883,0.164 -1.25,0.314 -0.736,0.3 -1.233,0.828 -1.233,1.85 0,1.464 1.1,2.126 2.437,2.126 1.395,0 2.029,-0.535 2.646,-1.48 h 0.03 c 0,0.761 0.14,1.268 1.041,1.268 0.24,0 0.383,-0.013 0.58,-0.056 v -0.746 a 0.859,0.859 0 0 1 -0.284,0.056 c -0.352,0 -0.52,-0.197 -0.52,-0.535 v -3.858 c 0,-1.945 -1.394,-2.338 -2.676,-2.338 -1.661,0 -2.859,0.733 -2.944,2.436 z m 4.734,1.068 v 1.158 c 0.013,1.421 -1.185,2.28 -2.537,2.28 -0.829,0 -1.62,-0.549 -1.62,-1.436 0,-0.71 0.468,-1.063 1.124,-1.27 a 7.095,7.095 0 0 1 1.091,-0.23 l 0.586,-0.083 0.58,-0.093 c 0.239,-0.042 0.633,-0.113 0.746,-0.326 z"/></g></svg>