<svg id="Layer_1" data-name="Layer 1" xmlns="http://www.w3.org/2000/svg" viewBox="0 0 572.23 164.41"><defs><style>.cls-1{fill:#1b365d;}.cls-2{fill:#ff8200;}.cls-3{fill:#ba0c2f;}</style></defs><title>Artboard 1</title><path class="cls-1" d="M74.54,89,63.7,60.91H43.28v43H58.39V76.51l10.12,27.43H80.39L90.57,76.39v27.55h15.18v-43H85.39Zm126.17,0-10.85-28.1H169.44v43h15.12V76.51l10.11,27.43h11.89l10.17-27.55v27.55h15.18v-43H211.55Zm120.14-5.43L300.31,60.91H287.57v43h15.24v-23l20.41,23H336v-43H320.85Zm20-13h15.29v33.4h15.48V70.54h15.24V60.91h-46Zm50.86,33.4h15.42v-43H391.74Zm70.94,0h45.95V94.19H478.1V87.3h27.73V77.61H478.1V70.54h30.53V60.91H462.68Zm-225.92,0h45.95V94.19H252.18V87.3h27.73V77.61H252.18V70.54h30.53V60.91H236.76ZM142.62,59.57c-2-.18-3.84-.18-5.79-.18-9.63.12-14.87,2.31-18.52,4.81S109,72,109,82.85a20.84,20.84,0,0,0,4.76,13.9,20.45,20.45,0,0,0,5.42,4.63c3.47,2.07,9,4.08,18.16,4.08A43.39,43.39,0,0,0,149.69,104a23.88,23.88,0,0,0,7-3.29,21.54,21.54,0,0,0,9.51-18.41,23.07,23.07,0,0,0-3.9-13C159.32,65,154,60.49,142.62,59.57Zm1,35.35a15,15,0,0,1-5.79,1c-2.62,0-9.57-.55-12.13-8.22a16.52,16.52,0,0,1-.85-5.25c0-5.24,2.31-10.42,7.37-12.55a13.39,13.39,0,0,1,5.55-1,12.79,12.79,0,0,1,4.57.67,11.7,11.7,0,0,1,4.14,2.43c1.59,1.4,3.9,4.88,3.9,10.36C150.36,87.3,148.41,92.78,143.6,94.92ZM513.49,62h2.27v6.08H517V62h2.28V60.91h-5.8Zm12.09-1.09-1.94,5.61-2-5.61H519.9v7.17h1.19l0-5.53,2,5.53h1l2-5.53v5.53h1.19V60.91Z"/><polygon class="cls-2" points="444.86 99.14 462.68 60.91 454.98 44.41 437.15 82.63 444.86 99.14"/><polygon class="cls-3" points="442.62 103.93 422.56 60.91 407.16 60.91 427.22 103.92 434.92 120.44 439.87 109.82 442.62 103.93"/></svg>